# xmcd CD database file
#
# Track frame offsets:
#	150
#	25159
#	48768
#	67940
#	82072
#	109326
#	138583
#	162503
#	177315
#	196124
#	208451
#	223476
#	243400
#
# Disc length: 3591 seconds
#
# Revision: 0
# Processed by: cddbd v1.5.1PL0 Copyright (c) Steve Scherf et al.
# Submitted via: CDex 1.51
#
DISCID=c60e050d
DTITLE=Kansas City Band  - Barrelhouse☆hey! hey!
DYEAR=2001
DGENRE=Jazz
TTITLE0=俺ァわかってる
TTITLE1=Cherry Red
TTITLE2=The Jumpin' Blues
TTITLE3=Come On Over To My House
TTITLE4=Bottle It
TTITLE5=Piney Brown Blues
TTITLE6=Moten Swing
TTITLE7=Let It Roll
TTITLE8=We've Got It!
TTITLE9=Daddy On My Mind
TTITLE10=旧びた場末の街角
TTITLE11=Scratchin' In The Gravel
TTITLE12=Roll'en Pete
EXTD=YEAR: 2001
EXTT0=
EXTT1=
EXTT2=
EXTT3=
EXTT4=
EXTT5=
EXTT6=
EXTT7=
EXTT8=
EXTT9=
EXTT10=
EXTT11=
EXTT12=
PLAYORDER=
